<svg xmlns="http://www.w3.org/2000/svg" version="1.1" xmlns:xlink="http://www.w3.org/1999/xlink" xmlns:svgjs="http://svgjs.dev/svgjs" width="1000" height="1000"><style>
    #light-icon {
      display: inline;
    }
    #dark-icon {
      display: none;
    }

    @media (prefers-color-scheme: dark) {
      #light-icon {
        display: none;
      }
      #dark-icon {
        display: inline;
      }
    }
  </style><g id="light-icon"><svg xmlns="http://www.w3.org/2000/svg" version="1.1" xmlns:xlink="http://www.w3.org/1999/xlink" xmlns:svgjs="http://svgjs.dev/svgjs" width="1000" height="1000"><g clip-path="url(#SvgjsClipPath1036)"><rect width="1000" height="1000" fill="#ffffff"></rect><g transform="matrix(1,0,0,1,0,0)"><svg xmlns="http://www.w3.org/2000/svg" version="1.1" xmlns:xlink="http://www.w3.org/1999/xlink" xmlns:svgjs="http://svgjs.dev/svgjs" width="1000" height="1000"><svg xmlns="http://www.w3.org/2000/svg" version="1.1" xmlns:xlink="http://www.w3.org/1999/xlink" xmlns:svgjs="http://svgjs.dev/svgjs" width="1000" height="1000"><style>
    #light-icon {
      display: inline;
    }
    #dark-icon {
      display: none;
    }

    @media (prefers-color-scheme: dark) {
      #light-icon {
        display: none;
      }
      #dark-icon {
        display: inline;
      }
    }
  </style><g id="light-icon"><svg xmlns="http://www.w3.org/2000/svg" version="1.1" xmlns:xlink="http://www.w3.org/1999/xlink" xmlns:svgjs="http://svgjs.dev/svgjs" width="1000" height="1000"><g><g transform="matrix(11.627906976744185,0,0,11.627906976744185,0,139.53488372093022)"><svg xmlns="http://www.w3.org/2000/svg" version="1.1" xmlns:xlink="http://www.w3.org/1999/xlink" xmlns:svgjs="http://svgjs.dev/svgjs" width="86" height="62"><svg width="86" height="62" viewBox="0 0 86 62" fill="none" xmlns="http://www.w3.org/2000/svg">
  <path d="M22.852 10.844C20.8832 10.844 20.8832 13.9065 22.852 13.9065C24.8208 13.9065 24.8208 10.844 22.852 10.844Z" fill="currentColor"></path>
  <path d="M83.0549 14.773C80.9611 11.0699 77.7893 8.64024 73.883 7.76134C71.1877 7.14806 68.3322 7.19103 65.6369 7.87462C64.676 8.109 63.5158 8.79259 63.0861 9.76132C62.8322 10.3434 62.8518 10.9644 63.1564 11.5269C63.4533 12.0582 63.9221 12.355 64.2503 12.5269C65.6292 13.273 67.0275 13.5777 68.383 13.8628C70.3947 14.3003 72.1292 14.6675 73.3948 16.4448C75.1604 18.9253 75.262 22.3628 75.1721 24.1909C74.9572 27.8862 73.9885 31.5581 72.3557 34.9059C72.1408 34.8044 71.9181 34.6911 71.7033 34.6012C69.5314 33.6325 67.2424 32.8551 65.0197 32.1129C60.5822 30.6246 56.3869 29.2145 53.0397 26.3473C52.0905 25.5426 51.192 24.5817 50.3249 23.6637C48.8132 22.0621 47.2546 20.4098 45.2546 19.2653C44.7859 18.9997 44.2859 18.7458 43.7741 18.4997C43.2038 18.2146 42.6803 17.9372 42.1921 17.6442C42.2038 16.4098 42.0788 15.1833 41.9382 14.0114C41.7429 12.4997 40.9187 7.41764 38.0202 5.47234C36.8679 4.695 35.5514 4.50359 34.1022 4.89031C32.8483 5.23797 32.071 5.98411 31.571 6.94111C28.1843 7.54267 24.3054 7.98021 20.665 6.97236C19.8291 6.73798 19.0127 6.4333 18.1455 6.10517C17.4932 5.85126 16.8291 5.60517 16.1572 5.39033C13.9736 4.67549 11.708 4.33953 9.4228 4.32003C8.90327 3.17553 8.1884 2.02313 6.9736 1.28093C5.29 0.241833 2.9619 0.413744 1.4424 1.66765C0.860371 2.1364 0.481461 2.68715 0.321301 3.28095C0.168961 3.8122 0.208021 4.33175 0.258801 4.78095C0.372081 5.6872 0.594741 6.38255 0.981461 6.93325C1.7588 8.07775 3.01266 8.52705 4.21586 8.88245C4.41117 8.94495 4.6143 9.00354 4.80961 9.05433C5.45414 13.8395 8.55571 18.402 12.7705 20.6163C13.3525 20.921 13.9424 21.1866 14.5244 21.4523C15.3213 21.7999 16.0635 22.1359 16.7588 22.5656C19.4229 24.2179 21.0127 27.4445 20.7197 30.5773C20.6689 31.089 20.5752 31.5968 20.4736 32.1398C20.3096 33.046 20.1377 33.9757 20.1689 34.9679C20.251 37.5695 21.708 40.0695 24.6181 42.6007C24.6181 42.6124 24.6298 42.6124 24.6298 42.6202C25.4775 47.4366 25.3759 51.0069 24.3017 53.5182C23.6689 54.9987 24.208 55.9791 24.5791 56.4244C25.3017 57.3111 26.5479 57.6588 27.7002 57.6588C28.0986 57.6588 28.4775 57.6197 28.833 57.5455C30.0361 57.2799 31.2314 56.5846 32.251 55.5846C32.29 56.3385 32.3213 57.0846 32.3447 57.8385C32.376 58.4323 32.3955 59.0221 32.4268 59.5846C32.4268 59.8698 32.458 60.7487 33.2549 61.2057C33.3994 61.276 33.54 61.3268 33.7041 61.3581C33.876 61.3971 34.0517 61.4088 34.2431 61.4088C35.1103 61.4088 36.0791 61.0924 36.6729 60.7253C41.2432 57.8972 42.079 53.073 42.3173 49.6743C42.3486 49.1625 42.3994 48.4595 42.6728 48.2251C42.9775 47.979 43.7744 48.104 44.1337 48.1626C45.9306 48.4282 47.9696 48.7329 49.5634 49.8267C50.5634 50.522 51.2079 51.4986 51.3407 52.5103C51.3915 52.8774 51.3798 53.2446 51.329 53.7056C51.1845 55.0611 51.7079 56.4283 52.7274 57.3384C53.5946 58.1235 54.7157 58.4907 55.8797 58.3579C56.0633 58.561 56.2586 58.7133 56.4813 58.8461C57.1531 59.2329 57.8797 59.2133 58.493 59.1625C68.4305 58.4282 74.38 54.7133 76.665 47.7955C76.8798 47.151 77.0204 46.4674 77.1259 45.776C80.5439 42.7643 83.1064 38.9205 84.5243 34.643C86.329 29.2368 86.5868 20.991 83.0751 14.776L83.0549 14.773ZM74.719 47.152C72.7073 53.2028 67.3518 56.4567 58.313 57.1208C57.9966 57.1521 57.649 57.1716 57.4771 57.0701C57.4263 57.0388 57.3326 56.9568 57.2115 56.7419V56.7302C57.1177 56.5857 57.0474 56.4255 56.9888 56.2615C56.8873 56.0584 56.7935 55.8552 56.7037 55.6912C56.3247 54.988 56.1334 54.4568 56.1021 53.9568C55.9576 51.7927 56.7349 51.4763 58.1646 50.8943C58.7466 50.6599 59.399 50.3943 59.9693 49.9646C60.981 49.2185 61.5396 48.1287 62.0396 47.1677C62.2349 46.7888 62.4263 46.4138 62.6529 46.0661C63.2154 45.1872 64.2857 44.4645 64.9381 44.8434C65.4185 45.1207 66.0514 44.9567 66.3248 44.4645C66.6099 43.9762 66.4381 43.3512 65.9459 43.0661C64.1412 42.027 62.0084 43.2692 60.9264 44.9723C60.6725 45.3707 60.4459 45.8004 60.2233 46.2379C59.7936 47.066 59.3873 47.859 58.7428 48.3317C58.3873 48.609 57.9068 48.8004 57.3951 49.0035C55.8834 49.6168 53.813 50.441 54.0669 54.0973C54.1177 54.8942 54.3834 55.5973 54.6685 56.1911C54.4146 56.0896 54.1998 55.9372 54.0748 55.8239C53.5435 55.3435 53.2701 54.6286 53.3404 53.9255C53.4107 53.324 53.4107 52.7733 53.3521 52.2537C53.1373 50.6599 52.1802 49.1599 50.6998 48.1521C48.731 46.7849 46.3326 46.4294 44.4225 46.1404C43.7584 46.0388 42.3834 45.8122 41.3522 46.6599C40.403 47.4568 40.321 48.7107 40.2702 49.5388C39.9421 54.2732 38.4929 57.1911 35.5866 58.988C35.3014 59.1599 34.821 59.3161 34.4421 59.3552C34.4108 58.8239 34.3913 58.2927 34.3718 57.7536C34.239 54.0505 34.1062 50.2224 32.0554 46.9996C30.8406 45.1012 29.1062 43.6832 27.4421 42.3043C26.9304 41.898 26.4304 41.4761 25.9421 41.0504C23.4812 38.9059 22.2585 36.8981 22.1882 34.8981C22.1687 34.1324 22.321 33.3356 22.4733 32.4997C22.5749 31.9372 22.6765 31.3669 22.739 30.7653C23.1179 26.8786 21.1374 22.8864 17.821 20.8278C17.0163 20.3278 16.1687 19.9489 15.3405 19.5817C14.7897 19.3356 14.2389 19.0934 13.7077 18.8043C9.87176 16.7848 7.09436 12.5191 6.75846 8.14033V8.1208C6.75846 8.07002 6.74675 8.01924 6.74675 7.97627C6.7155 7.57002 6.86003 7.17158 7.13347 6.85517C7.41081 6.55048 7.778 6.3747 8.17257 6.35517C10.6609 6.22236 13.1335 6.55048 15.5203 7.32392C16.1531 7.52704 16.7859 7.76142 17.407 8.00751C18.2859 8.33564 19.1726 8.67157 20.1101 8.92548C23.7546 9.94498 27.5163 9.65986 30.8871 9.12079C30.7347 10.0583 30.6839 11.027 30.6332 11.9372C30.5707 13.2341 30.5121 14.4684 30.1839 15.2341C29.7972 16.1403 29.223 17.0114 28.6331 17.9177C27.5003 19.6325 26.3284 21.406 26.3362 23.6208C26.3362 23.9685 26.387 24.4763 26.7347 24.9255C27.1722 25.4646 27.8167 25.5778 28.1331 25.6286C29.9183 25.9333 31.7347 26.1286 33.5393 26.1911C33.8244 26.2106 34.1213 26.2106 34.4065 26.2106C35.5784 26.2106 36.762 26.0974 37.8753 25.6091C39.8245 24.7419 41.3362 22.7536 41.8948 20.2927C41.926 20.1482 41.9455 20.0075 41.9768 19.863C42.262 20.0153 42.5588 20.1677 42.8557 20.3239C43.3245 20.5466 43.7932 20.7849 44.2346 21.0388C45.969 22.0271 47.3557 23.5076 48.8362 25.07C49.7346 26.0192 50.6721 27.0075 51.7034 27.8981C55.3557 31.0192 59.9378 32.5622 64.3674 34.0504C66.5393 34.773 68.7854 35.5309 70.8674 36.4566C71.3362 36.6714 71.8283 36.9058 72.2854 37.1792C72.2971 37.191 72.2971 37.1988 72.3049 37.1988C72.3167 37.1988 72.3245 37.1988 72.3245 37.2105C72.887 37.5464 73.4183 37.9331 73.805 38.4253C74.5393 39.3628 74.8558 40.6714 75.0394 41.7026C75.3753 43.6088 75.262 45.4995 74.7113 47.1518L74.719 47.152Z" fill="black"></path>
</svg></svg></g></g></svg></g><g id="dark-icon"><svg xmlns="http://www.w3.org/2000/svg" version="1.1" xmlns:xlink="http://www.w3.org/1999/xlink" xmlns:svgjs="http://svgjs.dev/svgjs" width="1000" height="1000"><g clip-path="url(#SvgjsClipPath1010)"><rect width="1000" height="1000" fill="#fffffe"></rect><g transform="matrix(8.13953488372093,0,0,8.13953488372093,150,247.67441860465115)"><svg xmlns="http://www.w3.org/2000/svg" version="1.1" xmlns:xlink="http://www.w3.org/1999/xlink" xmlns:svgjs="http://svgjs.dev/svgjs" width="86" height="62"><svg width="86" height="62" viewBox="0 0 86 62" fill="none" xmlns="http://www.w3.org/2000/svg">
  <path d="M22.852 10.844C20.8832 10.844 20.8832 13.9065 22.852 13.9065C24.8208 13.9065 24.8208 10.844 22.852 10.844Z" fill="currentColor"></path>
  <path d="M83.0549 14.773C80.9611 11.0699 77.7893 8.64024 73.883 7.76134C71.1877 7.14806 68.3322 7.19103 65.6369 7.87462C64.676 8.109 63.5158 8.79259 63.0861 9.76132C62.8322 10.3434 62.8518 10.9644 63.1564 11.5269C63.4533 12.0582 63.9221 12.355 64.2503 12.5269C65.6292 13.273 67.0275 13.5777 68.383 13.8628C70.3947 14.3003 72.1292 14.6675 73.3948 16.4448C75.1604 18.9253 75.262 22.3628 75.1721 24.1909C74.9572 27.8862 73.9885 31.5581 72.3557 34.9059C72.1408 34.8044 71.9181 34.6911 71.7033 34.6012C69.5314 33.6325 67.2424 32.8551 65.0197 32.1129C60.5822 30.6246 56.3869 29.2145 53.0397 26.3473C52.0905 25.5426 51.192 24.5817 50.3249 23.6637C48.8132 22.0621 47.2546 20.4098 45.2546 19.2653C44.7859 18.9997 44.2859 18.7458 43.7741 18.4997C43.2038 18.2146 42.6803 17.9372 42.1921 17.6442C42.2038 16.4098 42.0788 15.1833 41.9382 14.0114C41.7429 12.4997 40.9187 7.41764 38.0202 5.47234C36.8679 4.695 35.5514 4.50359 34.1022 4.89031C32.8483 5.23797 32.071 5.98411 31.571 6.94111C28.1843 7.54267 24.3054 7.98021 20.665 6.97236C19.8291 6.73798 19.0127 6.4333 18.1455 6.10517C17.4932 5.85126 16.8291 5.60517 16.1572 5.39033C13.9736 4.67549 11.708 4.33953 9.4228 4.32003C8.90327 3.17553 8.1884 2.02313 6.9736 1.28093C5.29 0.241833 2.9619 0.413744 1.4424 1.66765C0.860371 2.1364 0.481461 2.68715 0.321301 3.28095C0.168961 3.8122 0.208021 4.33175 0.258801 4.78095C0.372081 5.6872 0.594741 6.38255 0.981461 6.93325C1.7588 8.07775 3.01266 8.52705 4.21586 8.88245C4.41117 8.94495 4.6143 9.00354 4.80961 9.05433C5.45414 13.8395 8.55571 18.402 12.7705 20.6163C13.3525 20.921 13.9424 21.1866 14.5244 21.4523C15.3213 21.7999 16.0635 22.1359 16.7588 22.5656C19.4229 24.2179 21.0127 27.4445 20.7197 30.5773C20.6689 31.089 20.5752 31.5968 20.4736 32.1398C20.3096 33.046 20.1377 33.9757 20.1689 34.9679C20.251 37.5695 21.708 40.0695 24.6181 42.6007C24.6181 42.6124 24.6298 42.6124 24.6298 42.6202C25.4775 47.4366 25.3759 51.0069 24.3017 53.5182C23.6689 54.9987 24.208 55.9791 24.5791 56.4244C25.3017 57.3111 26.5479 57.6588 27.7002 57.6588C28.0986 57.6588 28.4775 57.6197 28.833 57.5455C30.0361 57.2799 31.2314 56.5846 32.251 55.5846C32.29 56.3385 32.3213 57.0846 32.3447 57.8385C32.376 58.4323 32.3955 59.0221 32.4268 59.5846C32.4268 59.8698 32.458 60.7487 33.2549 61.2057C33.3994 61.276 33.54 61.3268 33.7041 61.3581C33.876 61.3971 34.0517 61.4088 34.2431 61.4088C35.1103 61.4088 36.0791 61.0924 36.6729 60.7253C41.2432 57.8972 42.079 53.073 42.3173 49.6743C42.3486 49.1625 42.3994 48.4595 42.6728 48.2251C42.9775 47.979 43.7744 48.104 44.1337 48.1626C45.9306 48.4282 47.9696 48.7329 49.5634 49.8267C50.5634 50.522 51.2079 51.4986 51.3407 52.5103C51.3915 52.8774 51.3798 53.2446 51.329 53.7056C51.1845 55.0611 51.7079 56.4283 52.7274 57.3384C53.5946 58.1235 54.7157 58.4907 55.8797 58.3579C56.0633 58.561 56.2586 58.7133 56.4813 58.8461C57.1531 59.2329 57.8797 59.2133 58.493 59.1625C68.4305 58.4282 74.38 54.7133 76.665 47.7955C76.8798 47.151 77.0204 46.4674 77.1259 45.776C80.5439 42.7643 83.1064 38.9205 84.5243 34.643C86.329 29.2368 86.5868 20.991 83.0751 14.776L83.0549 14.773ZM74.719 47.152C72.7073 53.2028 67.3518 56.4567 58.313 57.1208C57.9966 57.1521 57.649 57.1716 57.4771 57.0701C57.4263 57.0388 57.3326 56.9568 57.2115 56.7419V56.7302C57.1177 56.5857 57.0474 56.4255 56.9888 56.2615C56.8873 56.0584 56.7935 55.8552 56.7037 55.6912C56.3247 54.988 56.1334 54.4568 56.1021 53.9568C55.9576 51.7927 56.7349 51.4763 58.1646 50.8943C58.7466 50.6599 59.399 50.3943 59.9693 49.9646C60.981 49.2185 61.5396 48.1287 62.0396 47.1677C62.2349 46.7888 62.4263 46.4138 62.6529 46.0661C63.2154 45.1872 64.2857 44.4645 64.9381 44.8434C65.4185 45.1207 66.0514 44.9567 66.3248 44.4645C66.6099 43.9762 66.4381 43.3512 65.9459 43.0661C64.1412 42.027 62.0084 43.2692 60.9264 44.9723C60.6725 45.3707 60.4459 45.8004 60.2233 46.2379C59.7936 47.066 59.3873 47.859 58.7428 48.3317C58.3873 48.609 57.9068 48.8004 57.3951 49.0035C55.8834 49.6168 53.813 50.441 54.0669 54.0973C54.1177 54.8942 54.3834 55.5973 54.6685 56.1911C54.4146 56.0896 54.1998 55.9372 54.0748 55.8239C53.5435 55.3435 53.2701 54.6286 53.3404 53.9255C53.4107 53.324 53.4107 52.7733 53.3521 52.2537C53.1373 50.6599 52.1802 49.1599 50.6998 48.1521C48.731 46.7849 46.3326 46.4294 44.4225 46.1404C43.7584 46.0388 42.3834 45.8122 41.3522 46.6599C40.403 47.4568 40.321 48.7107 40.2702 49.5388C39.9421 54.2732 38.4929 57.1911 35.5866 58.988C35.3014 59.1599 34.821 59.3161 34.4421 59.3552C34.4108 58.8239 34.3913 58.2927 34.3718 57.7536C34.239 54.0505 34.1062 50.2224 32.0554 46.9996C30.8406 45.1012 29.1062 43.6832 27.4421 42.3043C26.9304 41.898 26.4304 41.4761 25.9421 41.0504C23.4812 38.9059 22.2585 36.8981 22.1882 34.8981C22.1687 34.1324 22.321 33.3356 22.4733 32.4997C22.5749 31.9372 22.6765 31.3669 22.739 30.7653C23.1179 26.8786 21.1374 22.8864 17.821 20.8278C17.0163 20.3278 16.1687 19.9489 15.3405 19.5817C14.7897 19.3356 14.2389 19.0934 13.7077 18.8043C9.87176 16.7848 7.09436 12.5191 6.75846 8.14033V8.1208C6.75846 8.07002 6.74675 8.01924 6.74675 7.97627C6.7155 7.57002 6.86003 7.17158 7.13347 6.85517C7.41081 6.55048 7.778 6.3747 8.17257 6.35517C10.6609 6.22236 13.1335 6.55048 15.5203 7.32392C16.1531 7.52704 16.7859 7.76142 17.407 8.00751C18.2859 8.33564 19.1726 8.67157 20.1101 8.92548C23.7546 9.94498 27.5163 9.65986 30.8871 9.12079C30.7347 10.0583 30.6839 11.027 30.6332 11.9372C30.5707 13.2341 30.5121 14.4684 30.1839 15.2341C29.7972 16.1403 29.223 17.0114 28.6331 17.9177C27.5003 19.6325 26.3284 21.406 26.3362 23.6208C26.3362 23.9685 26.387 24.4763 26.7347 24.9255C27.1722 25.4646 27.8167 25.5778 28.1331 25.6286C29.9183 25.9333 31.7347 26.1286 33.5393 26.1911C33.8244 26.2106 34.1213 26.2106 34.4065 26.2106C35.5784 26.2106 36.762 26.0974 37.8753 25.6091C39.8245 24.7419 41.3362 22.7536 41.8948 20.2927C41.926 20.1482 41.9455 20.0075 41.9768 19.863C42.262 20.0153 42.5588 20.1677 42.8557 20.3239C43.3245 20.5466 43.7932 20.7849 44.2346 21.0388C45.969 22.0271 47.3557 23.5076 48.8362 25.07C49.7346 26.0192 50.6721 27.0075 51.7034 27.8981C55.3557 31.0192 59.9378 32.5622 64.3674 34.0504C66.5393 34.773 68.7854 35.5309 70.8674 36.4566C71.3362 36.6714 71.8283 36.9058 72.2854 37.1792C72.2971 37.191 72.2971 37.1988 72.3049 37.1988C72.3167 37.1988 72.3245 37.1988 72.3245 37.2105C72.887 37.5464 73.4183 37.9331 73.805 38.4253C74.5393 39.3628 74.8558 40.6714 75.0394 41.7026C75.3753 43.6088 75.262 45.4995 74.7113 47.1518L74.719 47.152Z" fill="black"></path>
</svg></svg></g></g><defs><clipPath id="SvgjsClipPath1010"><rect width="1000" height="1000" x="0" y="0" rx="500" ry="500"></rect></clipPath><clipPath id="SvgjsClipPath1036"><rect width="1000" height="1000" x="0" y="0" rx="500" ry="500"></rect></clipPath></defs></svg></g></svg></svg></g></g></svg></g><g id="dark-icon"><svg xmlns="http://www.w3.org/2000/svg" version="1.1" xmlns:xlink="http://www.w3.org/1999/xlink" xmlns:svgjs="http://svgjs.dev/svgjs" width="1000" height="1000"><g clip-path="url(#SvgjsClipPath1037)"><rect width="1000" height="1000" fill="#ffffff"></rect><g transform="matrix(1,0,0,1,0,0)"><svg xmlns="http://www.w3.org/2000/svg" version="1.1" xmlns:xlink="http://www.w3.org/1999/xlink" xmlns:svgjs="http://svgjs.dev/svgjs" width="1000" height="1000"><svg xmlns="http://www.w3.org/2000/svg" version="1.1" xmlns:xlink="http://www.w3.org/1999/xlink" xmlns:svgjs="http://svgjs.dev/svgjs" width="1000" height="1000"><style>
    #light-icon {
      display: inline;
    }
    #dark-icon {
      display: none;
    }

    @media (prefers-color-scheme: dark) {
      #light-icon {
        display: none;
      }
      #dark-icon {
        display: inline;
      }
    }
  </style><g id="light-icon"><svg xmlns="http://www.w3.org/2000/svg" version="1.1" xmlns:xlink="http://www.w3.org/1999/xlink" xmlns:svgjs="http://svgjs.dev/svgjs" width="1000" height="1000"><g><g transform="matrix(11.627906976744185,0,0,11.627906976744185,0,139.53488372093022)"><svg xmlns="http://www.w3.org/2000/svg" version="1.1" xmlns:xlink="http://www.w3.org/1999/xlink" xmlns:svgjs="http://svgjs.dev/svgjs" width="86" height="62"><svg width="86" height="62" viewBox="0 0 86 62" fill="none" xmlns="http://www.w3.org/2000/svg">
  <path d="M22.852 10.844C20.8832 10.844 20.8832 13.9065 22.852 13.9065C24.8208 13.9065 24.8208 10.844 22.852 10.844Z" fill="currentColor"></path>
  <path d="M83.0549 14.773C80.9611 11.0699 77.7893 8.64024 73.883 7.76134C71.1877 7.14806 68.3322 7.19103 65.6369 7.87462C64.676 8.109 63.5158 8.79259 63.0861 9.76132C62.8322 10.3434 62.8518 10.9644 63.1564 11.5269C63.4533 12.0582 63.9221 12.355 64.2503 12.5269C65.6292 13.273 67.0275 13.5777 68.383 13.8628C70.3947 14.3003 72.1292 14.6675 73.3948 16.4448C75.1604 18.9253 75.262 22.3628 75.1721 24.1909C74.9572 27.8862 73.9885 31.5581 72.3557 34.9059C72.1408 34.8044 71.9181 34.6911 71.7033 34.6012C69.5314 33.6325 67.2424 32.8551 65.0197 32.1129C60.5822 30.6246 56.3869 29.2145 53.0397 26.3473C52.0905 25.5426 51.192 24.5817 50.3249 23.6637C48.8132 22.0621 47.2546 20.4098 45.2546 19.2653C44.7859 18.9997 44.2859 18.7458 43.7741 18.4997C43.2038 18.2146 42.6803 17.9372 42.1921 17.6442C42.2038 16.4098 42.0788 15.1833 41.9382 14.0114C41.7429 12.4997 40.9187 7.41764 38.0202 5.47234C36.8679 4.695 35.5514 4.50359 34.1022 4.89031C32.8483 5.23797 32.071 5.98411 31.571 6.94111C28.1843 7.54267 24.3054 7.98021 20.665 6.97236C19.8291 6.73798 19.0127 6.4333 18.1455 6.10517C17.4932 5.85126 16.8291 5.60517 16.1572 5.39033C13.9736 4.67549 11.708 4.33953 9.4228 4.32003C8.90327 3.17553 8.1884 2.02313 6.9736 1.28093C5.29 0.241833 2.9619 0.413744 1.4424 1.66765C0.860371 2.1364 0.481461 2.68715 0.321301 3.28095C0.168961 3.8122 0.208021 4.33175 0.258801 4.78095C0.372081 5.6872 0.594741 6.38255 0.981461 6.93325C1.7588 8.07775 3.01266 8.52705 4.21586 8.88245C4.41117 8.94495 4.6143 9.00354 4.80961 9.05433C5.45414 13.8395 8.55571 18.402 12.7705 20.6163C13.3525 20.921 13.9424 21.1866 14.5244 21.4523C15.3213 21.7999 16.0635 22.1359 16.7588 22.5656C19.4229 24.2179 21.0127 27.4445 20.7197 30.5773C20.6689 31.089 20.5752 31.5968 20.4736 32.1398C20.3096 33.046 20.1377 33.9757 20.1689 34.9679C20.251 37.5695 21.708 40.0695 24.6181 42.6007C24.6181 42.6124 24.6298 42.6124 24.6298 42.6202C25.4775 47.4366 25.3759 51.0069 24.3017 53.5182C23.6689 54.9987 24.208 55.9791 24.5791 56.4244C25.3017 57.3111 26.5479 57.6588 27.7002 57.6588C28.0986 57.6588 28.4775 57.6197 28.833 57.5455C30.0361 57.2799 31.2314 56.5846 32.251 55.5846C32.29 56.3385 32.3213 57.0846 32.3447 57.8385C32.376 58.4323 32.3955 59.0221 32.4268 59.5846C32.4268 59.8698 32.458 60.7487 33.2549 61.2057C33.3994 61.276 33.54 61.3268 33.7041 61.3581C33.876 61.3971 34.0517 61.4088 34.2431 61.4088C35.1103 61.4088 36.0791 61.0924 36.6729 60.7253C41.2432 57.8972 42.079 53.073 42.3173 49.6743C42.3486 49.1625 42.3994 48.4595 42.6728 48.2251C42.9775 47.979 43.7744 48.104 44.1337 48.1626C45.9306 48.4282 47.9696 48.7329 49.5634 49.8267C50.5634 50.522 51.2079 51.4986 51.3407 52.5103C51.3915 52.8774 51.3798 53.2446 51.329 53.7056C51.1845 55.0611 51.7079 56.4283 52.7274 57.3384C53.5946 58.1235 54.7157 58.4907 55.8797 58.3579C56.0633 58.561 56.2586 58.7133 56.4813 58.8461C57.1531 59.2329 57.8797 59.2133 58.493 59.1625C68.4305 58.4282 74.38 54.7133 76.665 47.7955C76.8798 47.151 77.0204 46.4674 77.1259 45.776C80.5439 42.7643 83.1064 38.9205 84.5243 34.643C86.329 29.2368 86.5868 20.991 83.0751 14.776L83.0549 14.773ZM74.719 47.152C72.7073 53.2028 67.3518 56.4567 58.313 57.1208C57.9966 57.1521 57.649 57.1716 57.4771 57.0701C57.4263 57.0388 57.3326 56.9568 57.2115 56.7419V56.7302C57.1177 56.5857 57.0474 56.4255 56.9888 56.2615C56.8873 56.0584 56.7935 55.8552 56.7037 55.6912C56.3247 54.988 56.1334 54.4568 56.1021 53.9568C55.9576 51.7927 56.7349 51.4763 58.1646 50.8943C58.7466 50.6599 59.399 50.3943 59.9693 49.9646C60.981 49.2185 61.5396 48.1287 62.0396 47.1677C62.2349 46.7888 62.4263 46.4138 62.6529 46.0661C63.2154 45.1872 64.2857 44.4645 64.9381 44.8434C65.4185 45.1207 66.0514 44.9567 66.3248 44.4645C66.6099 43.9762 66.4381 43.3512 65.9459 43.0661C64.1412 42.027 62.0084 43.2692 60.9264 44.9723C60.6725 45.3707 60.4459 45.8004 60.2233 46.2379C59.7936 47.066 59.3873 47.859 58.7428 48.3317C58.3873 48.609 57.9068 48.8004 57.3951 49.0035C55.8834 49.6168 53.813 50.441 54.0669 54.0973C54.1177 54.8942 54.3834 55.5973 54.6685 56.1911C54.4146 56.0896 54.1998 55.9372 54.0748 55.8239C53.5435 55.3435 53.2701 54.6286 53.3404 53.9255C53.4107 53.324 53.4107 52.7733 53.3521 52.2537C53.1373 50.6599 52.1802 49.1599 50.6998 48.1521C48.731 46.7849 46.3326 46.4294 44.4225 46.1404C43.7584 46.0388 42.3834 45.8122 41.3522 46.6599C40.403 47.4568 40.321 48.7107 40.2702 49.5388C39.9421 54.2732 38.4929 57.1911 35.5866 58.988C35.3014 59.1599 34.821 59.3161 34.4421 59.3552C34.4108 58.8239 34.3913 58.2927 34.3718 57.7536C34.239 54.0505 34.1062 50.2224 32.0554 46.9996C30.8406 45.1012 29.1062 43.6832 27.4421 42.3043C26.9304 41.898 26.4304 41.4761 25.9421 41.0504C23.4812 38.9059 22.2585 36.8981 22.1882 34.8981C22.1687 34.1324 22.321 33.3356 22.4733 32.4997C22.5749 31.9372 22.6765 31.3669 22.739 30.7653C23.1179 26.8786 21.1374 22.8864 17.821 20.8278C17.0163 20.3278 16.1687 19.9489 15.3405 19.5817C14.7897 19.3356 14.2389 19.0934 13.7077 18.8043C9.87176 16.7848 7.09436 12.5191 6.75846 8.14033V8.1208C6.75846 8.07002 6.74675 8.01924 6.74675 7.97627C6.7155 7.57002 6.86003 7.17158 7.13347 6.85517C7.41081 6.55048 7.778 6.3747 8.17257 6.35517C10.6609 6.22236 13.1335 6.55048 15.5203 7.32392C16.1531 7.52704 16.7859 7.76142 17.407 8.00751C18.2859 8.33564 19.1726 8.67157 20.1101 8.92548C23.7546 9.94498 27.5163 9.65986 30.8871 9.12079C30.7347 10.0583 30.6839 11.027 30.6332 11.9372C30.5707 13.2341 30.5121 14.4684 30.1839 15.2341C29.7972 16.1403 29.223 17.0114 28.6331 17.9177C27.5003 19.6325 26.3284 21.406 26.3362 23.6208C26.3362 23.9685 26.387 24.4763 26.7347 24.9255C27.1722 25.4646 27.8167 25.5778 28.1331 25.6286C29.9183 25.9333 31.7347 26.1286 33.5393 26.1911C33.8244 26.2106 34.1213 26.2106 34.4065 26.2106C35.5784 26.2106 36.762 26.0974 37.8753 25.6091C39.8245 24.7419 41.3362 22.7536 41.8948 20.2927C41.926 20.1482 41.9455 20.0075 41.9768 19.863C42.262 20.0153 42.5588 20.1677 42.8557 20.3239C43.3245 20.5466 43.7932 20.7849 44.2346 21.0388C45.969 22.0271 47.3557 23.5076 48.8362 25.07C49.7346 26.0192 50.6721 27.0075 51.7034 27.8981C55.3557 31.0192 59.9378 32.5622 64.3674 34.0504C66.5393 34.773 68.7854 35.5309 70.8674 36.4566C71.3362 36.6714 71.8283 36.9058 72.2854 37.1792C72.2971 37.191 72.2971 37.1988 72.3049 37.1988C72.3167 37.1988 72.3245 37.1988 72.3245 37.2105C72.887 37.5464 73.4183 37.9331 73.805 38.4253C74.5393 39.3628 74.8558 40.6714 75.0394 41.7026C75.3753 43.6088 75.262 45.4995 74.7113 47.1518L74.719 47.152Z" fill="black"></path>
</svg></svg></g></g></svg></g><g id="dark-icon"><svg xmlns="http://www.w3.org/2000/svg" version="1.1" xmlns:xlink="http://www.w3.org/1999/xlink" xmlns:svgjs="http://svgjs.dev/svgjs" width="1000" height="1000"><g clip-path="url(#SvgjsClipPath1010)"><rect width="1000" height="1000" fill="#fffffe"></rect><g transform="matrix(8.13953488372093,0,0,8.13953488372093,150,247.67441860465115)"><svg xmlns="http://www.w3.org/2000/svg" version="1.1" xmlns:xlink="http://www.w3.org/1999/xlink" xmlns:svgjs="http://svgjs.dev/svgjs" width="86" height="62"><svg width="86" height="62" viewBox="0 0 86 62" fill="none" xmlns="http://www.w3.org/2000/svg">
  <path d="M22.852 10.844C20.8832 10.844 20.8832 13.9065 22.852 13.9065C24.8208 13.9065 24.8208 10.844 22.852 10.844Z" fill="currentColor"></path>
  <path d="M83.0549 14.773C80.9611 11.0699 77.7893 8.64024 73.883 7.76134C71.1877 7.14806 68.3322 7.19103 65.6369 7.87462C64.676 8.109 63.5158 8.79259 63.0861 9.76132C62.8322 10.3434 62.8518 10.9644 63.1564 11.5269C63.4533 12.0582 63.9221 12.355 64.2503 12.5269C65.6292 13.273 67.0275 13.5777 68.383 13.8628C70.3947 14.3003 72.1292 14.6675 73.3948 16.4448C75.1604 18.9253 75.262 22.3628 75.1721 24.1909C74.9572 27.8862 73.9885 31.5581 72.3557 34.9059C72.1408 34.8044 71.9181 34.6911 71.7033 34.6012C69.5314 33.6325 67.2424 32.8551 65.0197 32.1129C60.5822 30.6246 56.3869 29.2145 53.0397 26.3473C52.0905 25.5426 51.192 24.5817 50.3249 23.6637C48.8132 22.0621 47.2546 20.4098 45.2546 19.2653C44.7859 18.9997 44.2859 18.7458 43.7741 18.4997C43.2038 18.2146 42.6803 17.9372 42.1921 17.6442C42.2038 16.4098 42.0788 15.1833 41.9382 14.0114C41.7429 12.4997 40.9187 7.41764 38.0202 5.47234C36.8679 4.695 35.5514 4.50359 34.1022 4.89031C32.8483 5.23797 32.071 5.98411 31.571 6.94111C28.1843 7.54267 24.3054 7.98021 20.665 6.97236C19.8291 6.73798 19.0127 6.4333 18.1455 6.10517C17.4932 5.85126 16.8291 5.60517 16.1572 5.39033C13.9736 4.67549 11.708 4.33953 9.4228 4.32003C8.90327 3.17553 8.1884 2.02313 6.9736 1.28093C5.29 0.241833 2.9619 0.413744 1.4424 1.66765C0.860371 2.1364 0.481461 2.68715 0.321301 3.28095C0.168961 3.8122 0.208021 4.33175 0.258801 4.78095C0.372081 5.6872 0.594741 6.38255 0.981461 6.93325C1.7588 8.07775 3.01266 8.52705 4.21586 8.88245C4.41117 8.94495 4.6143 9.00354 4.80961 9.05433C5.45414 13.8395 8.55571 18.402 12.7705 20.6163C13.3525 20.921 13.9424 21.1866 14.5244 21.4523C15.3213 21.7999 16.0635 22.1359 16.7588 22.5656C19.4229 24.2179 21.0127 27.4445 20.7197 30.5773C20.6689 31.089 20.5752 31.5968 20.4736 32.1398C20.3096 33.046 20.1377 33.9757 20.1689 34.9679C20.251 37.5695 21.708 40.0695 24.6181 42.6007C24.6181 42.6124 24.6298 42.6124 24.6298 42.6202C25.4775 47.4366 25.3759 51.0069 24.3017 53.5182C23.6689 54.9987 24.208 55.9791 24.5791 56.4244C25.3017 57.3111 26.5479 57.6588 27.7002 57.6588C28.0986 57.6588 28.4775 57.6197 28.833 57.5455C30.0361 57.2799 31.2314 56.5846 32.251 55.5846C32.29 56.3385 32.3213 57.0846 32.3447 57.8385C32.376 58.4323 32.3955 59.0221 32.4268 59.5846C32.4268 59.8698 32.458 60.7487 33.2549 61.2057C33.3994 61.276 33.54 61.3268 33.7041 61.3581C33.876 61.3971 34.0517 61.4088 34.2431 61.4088C35.1103 61.4088 36.0791 61.0924 36.6729 60.7253C41.2432 57.8972 42.079 53.073 42.3173 49.6743C42.3486 49.1625 42.3994 48.4595 42.6728 48.2251C42.9775 47.979 43.7744 48.104 44.1337 48.1626C45.9306 48.4282 47.9696 48.7329 49.5634 49.8267C50.5634 50.522 51.2079 51.4986 51.3407 52.5103C51.3915 52.8774 51.3798 53.2446 51.329 53.7056C51.1845 55.0611 51.7079 56.4283 52.7274 57.3384C53.5946 58.1235 54.7157 58.4907 55.8797 58.3579C56.0633 58.561 56.2586 58.7133 56.4813 58.8461C57.1531 59.2329 57.8797 59.2133 58.493 59.1625C68.4305 58.4282 74.38 54.7133 76.665 47.7955C76.8798 47.151 77.0204 46.4674 77.1259 45.776C80.5439 42.7643 83.1064 38.9205 84.5243 34.643C86.329 29.2368 86.5868 20.991 83.0751 14.776L83.0549 14.773ZM74.719 47.152C72.7073 53.2028 67.3518 56.4567 58.313 57.1208C57.9966 57.1521 57.649 57.1716 57.4771 57.0701C57.4263 57.0388 57.3326 56.9568 57.2115 56.7419V56.7302C57.1177 56.5857 57.0474 56.4255 56.9888 56.2615C56.8873 56.0584 56.7935 55.8552 56.7037 55.6912C56.3247 54.988 56.1334 54.4568 56.1021 53.9568C55.9576 51.7927 56.7349 51.4763 58.1646 50.8943C58.7466 50.6599 59.399 50.3943 59.9693 49.9646C60.981 49.2185 61.5396 48.1287 62.0396 47.1677C62.2349 46.7888 62.4263 46.4138 62.6529 46.0661C63.2154 45.1872 64.2857 44.4645 64.9381 44.8434C65.4185 45.1207 66.0514 44.9567 66.3248 44.4645C66.6099 43.9762 66.4381 43.3512 65.9459 43.0661C64.1412 42.027 62.0084 43.2692 60.9264 44.9723C60.6725 45.3707 60.4459 45.8004 60.2233 46.2379C59.7936 47.066 59.3873 47.859 58.7428 48.3317C58.3873 48.609 57.9068 48.8004 57.3951 49.0035C55.8834 49.6168 53.813 50.441 54.0669 54.0973C54.1177 54.8942 54.3834 55.5973 54.6685 56.1911C54.4146 56.0896 54.1998 55.9372 54.0748 55.8239C53.5435 55.3435 53.2701 54.6286 53.3404 53.9255C53.4107 53.324 53.4107 52.7733 53.3521 52.2537C53.1373 50.6599 52.1802 49.1599 50.6998 48.1521C48.731 46.7849 46.3326 46.4294 44.4225 46.1404C43.7584 46.0388 42.3834 45.8122 41.3522 46.6599C40.403 47.4568 40.321 48.7107 40.2702 49.5388C39.9421 54.2732 38.4929 57.1911 35.5866 58.988C35.3014 59.1599 34.821 59.3161 34.4421 59.3552C34.4108 58.8239 34.3913 58.2927 34.3718 57.7536C34.239 54.0505 34.1062 50.2224 32.0554 46.9996C30.8406 45.1012 29.1062 43.6832 27.4421 42.3043C26.9304 41.898 26.4304 41.4761 25.9421 41.0504C23.4812 38.9059 22.2585 36.8981 22.1882 34.8981C22.1687 34.1324 22.321 33.3356 22.4733 32.4997C22.5749 31.9372 22.6765 31.3669 22.739 30.7653C23.1179 26.8786 21.1374 22.8864 17.821 20.8278C17.0163 20.3278 16.1687 19.9489 15.3405 19.5817C14.7897 19.3356 14.2389 19.0934 13.7077 18.8043C9.87176 16.7848 7.09436 12.5191 6.75846 8.14033V8.1208C6.75846 8.07002 6.74675 8.01924 6.74675 7.97627C6.7155 7.57002 6.86003 7.17158 7.13347 6.85517C7.41081 6.55048 7.778 6.3747 8.17257 6.35517C10.6609 6.22236 13.1335 6.55048 15.5203 7.32392C16.1531 7.52704 16.7859 7.76142 17.407 8.00751C18.2859 8.33564 19.1726 8.67157 20.1101 8.92548C23.7546 9.94498 27.5163 9.65986 30.8871 9.12079C30.7347 10.0583 30.6839 11.027 30.6332 11.9372C30.5707 13.2341 30.5121 14.4684 30.1839 15.2341C29.7972 16.1403 29.223 17.0114 28.6331 17.9177C27.5003 19.6325 26.3284 21.406 26.3362 23.6208C26.3362 23.9685 26.387 24.4763 26.7347 24.9255C27.1722 25.4646 27.8167 25.5778 28.1331 25.6286C29.9183 25.9333 31.7347 26.1286 33.5393 26.1911C33.8244 26.2106 34.1213 26.2106 34.4065 26.2106C35.5784 26.2106 36.762 26.0974 37.8753 25.6091C39.8245 24.7419 41.3362 22.7536 41.8948 20.2927C41.926 20.1482 41.9455 20.0075 41.9768 19.863C42.262 20.0153 42.5588 20.1677 42.8557 20.3239C43.3245 20.5466 43.7932 20.7849 44.2346 21.0388C45.969 22.0271 47.3557 23.5076 48.8362 25.07C49.7346 26.0192 50.6721 27.0075 51.7034 27.8981C55.3557 31.0192 59.9378 32.5622 64.3674 34.0504C66.5393 34.773 68.7854 35.5309 70.8674 36.4566C71.3362 36.6714 71.8283 36.9058 72.2854 37.1792C72.2971 37.191 72.2971 37.1988 72.3049 37.1988C72.3167 37.1988 72.3245 37.1988 72.3245 37.2105C72.887 37.5464 73.4183 37.9331 73.805 38.4253C74.5393 39.3628 74.8558 40.6714 75.0394 41.7026C75.3753 43.6088 75.262 45.4995 74.7113 47.1518L74.719 47.152Z" fill="black"></path>
</svg></svg></g></g><defs><clipPath id="SvgjsClipPath1010"><rect width="1000" height="1000" x="0" y="0" rx="500" ry="500"></rect></clipPath><clipPath id="SvgjsClipPath1037"><rect width="1000" height="1000" x="0" y="0" rx="500" ry="500"></rect></clipPath></defs></svg></g></svg></svg></g></g></svg></g></svg>